<svg width="26" height="21" viewBox="0 0 26 21" fill="none" xmlns="http://www.w3.org/2000/svg">
<g clip-path="url(#clip0_701_9654)">
<path d="M25.8716 7.09208L23.3781 4.98682L14.1868 8.00912L16.035 10.7592C16.2255 11.0426 16.5838 11.1645 16.9097 11.0568L25.4787 8.22793C25.9552 8.07037 26.1503 7.50653 25.8716 7.09208Z" fill="#1CB666"/>
<path d="M0.128338 7.09208C-0.15035 7.50658 0.0447519 8.07037 0.521283 8.22788L9.09026 11.0568C9.41618 11.1645 9.77444 11.0426 9.96497 10.7591L11.8132 8.00907L2.6219 4.98682L0.128338 7.09208Z" fill="#1CB666"/>
<path d="M22.9531 16.7223V10.6606L17.3933 12.4898C16.4005 12.817 15.3343 12.4408 14.7674 11.597L13.7619 10.1006L13.7617 20.5L22.4325 17.4386C22.7434 17.3359 22.9531 17.0473 22.9531 16.7223Z" fill="#1CB666"/>
<path d="M11.2326 11.5969C10.6694 12.4354 9.60543 12.8181 8.60823 12.4904L3.04688 10.6602V16.7222C3.04688 17.0472 3.25655 17.3358 3.56748 17.4385L12.2383 20.4999V10.1006L11.2326 11.5969Z" fill="#1CB666"/>
<path d="M13 6.80919L22.1912 3.78689L16.9796 2.07895L13.2654 0.5C12.8339 0.927944 14.1406 0.763158 13.5307 0.763158C13.5307 0.763158 13.6968 0.927944 13.2654 0.5L9.06856 2.06468L3.80884 3.78689L13 6.80919Z" fill="#1CB666"/>
</g>
<defs>
<clipPath id="clip0_701_9654">
<rect width="26" height="20" fill="white" transform="translate(0 0.5)"/>
</clipPath>
</defs>
</svg>
