<svg width="24" height="24" viewBox="0 0 24 24" fill="none" xmlns="http://www.w3.org/2000/svg">
<path d="M8.99988 9.99988C8.73467 9.99988 8.48031 10.1052 8.29278 10.2928C8.10524 10.4803 7.99988 10.7347 7.99988 10.9999V14.9999H9.99988V11.9999H12.9999V14.4999L16.4999 10.9999L12.9999 7.49988V9.99988H8.99988ZM12.7069 1.39288L22.6069 11.2929C22.7944 11.4804 22.8997 11.7347 22.8997 11.9999C22.8997 12.265 22.7944 12.5194 22.6069 12.7069L12.7069 22.6069C12.5194 22.7944 12.265 22.8997 11.9999 22.8997C11.7347 22.8997 11.4804 22.7944 11.2929 22.6069L1.39288 12.7069C1.20541 12.5194 1.1001 12.265 1.1001 11.9999C1.1001 11.7347 1.20541 11.4804 1.39288 11.2929L11.2929 1.39288C11.4804 1.20541 11.7347 1.1001 11.9999 1.1001C12.265 1.1001 12.5194 1.20541 12.7069 1.39288Z" fill="#088D43"/>
</svg>
